<svg width="690" height="208" viewBox="0 0 690 208" fill="none" xmlns="http://www.w3.org/2000/svg">
<rect width="689.9" height="207.8" fill="#111111"/>
<g filter="url(#filter0_dd)">
<path d="M343.286 82.8499C344.063 81.5575 345.937 81.5575 346.714 82.8499L364.828 112.969C365.63 114.302 364.67 116 363.114 116H326.886C325.33 116 324.37 114.302 325.172 112.969L343.286 82.8499Z" fill="white"/>
<path d="M343.286 82.8499C344.063 81.5575 345.937 81.5575 346.714 82.8499L364.828 112.969C365.63 114.302 364.67 116 363.114 116H326.886C325.33 116 324.37 114.302 325.172 112.969L343.286 82.8499Z" fill="url(#paint0_linear)"/>
</g>
<defs>
<filter id="filter0_dd" x="316.883" y="73.8806" width="56.2342" height="50.1194" filterUnits="userSpaceOnUse" color-interpolation-filters="sRGB">
<feFlood flood-opacity="0" result="BackgroundImageFix"/>
<feColorMatrix in="SourceAlpha" type="matrix" values="0 0 0 0 0 0 0 0 0 0 0 0 0 0 0 0 0 0 127 0"/>
<feOffset/>
<feGaussianBlur stdDeviation="4"/>
<feColorMatrix type="matrix" values="0 0 0 0 1 0 0 0 0 1 0 0 0 0 1 0 0 0 0.25 0"/>
<feBlend mode="normal" in2="BackgroundImageFix" result="effect1_dropShadow"/>
<feColorMatrix in="SourceAlpha" type="matrix" values="0 0 0 0 0 0 0 0 0 0 0 0 0 0 0 0 0 0 127 0"/>
<feOffset/>
<feGaussianBlur stdDeviation="2"/>
<feColorMatrix type="matrix" values="0 0 0 0 1 0 0 0 0 1 0 0 0 0 1 0 0 0 0.45 0"/>
<feBlend mode="normal" in2="effect1_dropShadow" result="effect2_dropShadow"/>
<feBlend mode="normal" in="SourceGraphic" in2="effect2_dropShadow" result="shape"/>
</filter>
<linearGradient id="paint0_linear" x1="328.5" y1="109" x2="365" y2="115.5" gradientUnits="userSpaceOnUse">
<stop stop-color="#DDDDDD"/>
<stop offset="1" stop-color="white" stop-opacity="0"/>
</linearGradient>
</defs>
</svg>
