<svg width="900" height="300" viewBox="0 0 900 300" fill="none" xmlns="http://www.w3.org/2000/svg">
<rect width="900" height="300" fill="#111111"/>
<g filter="url(#filter0_dd)">
<path d="M448.786 116.85C449.563 115.558 451.437 115.558 452.214 116.85L481.153 164.969C481.955 166.302 480.995 168 479.439 168H421.561C420.005 168 419.045 166.302 419.847 164.969L448.786 116.85Z" fill="white"/>
<path d="M448.786 116.85C449.563 115.558 451.437 115.558 452.214 116.85L481.153 164.969C481.955 166.302 480.995 168 479.439 168H421.561C420.005 168 419.045 166.302 419.847 164.969L448.786 116.85Z" fill="url(#paint0_linear)"/>
</g>
<defs>
<filter id="filter0_dd" x="411.558" y="107.881" width="77.8848" height="68.1194" filterUnits="userSpaceOnUse" color-interpolation-filters="sRGB">
<feFlood flood-opacity="0" result="BackgroundImageFix"/>
<feColorMatrix in="SourceAlpha" type="matrix" values="0 0 0 0 0 0 0 0 0 0 0 0 0 0 0 0 0 0 127 0"/>
<feOffset/>
<feGaussianBlur stdDeviation="4"/>
<feColorMatrix type="matrix" values="0 0 0 0 1 0 0 0 0 1 0 0 0 0 1 0 0 0 0.25 0"/>
<feBlend mode="normal" in2="BackgroundImageFix" result="effect1_dropShadow"/>
<feColorMatrix in="SourceAlpha" type="matrix" values="0 0 0 0 0 0 0 0 0 0 0 0 0 0 0 0 0 0 127 0"/>
<feOffset/>
<feGaussianBlur stdDeviation="2"/>
<feColorMatrix type="matrix" values="0 0 0 0 1 0 0 0 0 1 0 0 0 0 1 0 0 0 0.45 0"/>
<feBlend mode="normal" in2="effect1_dropShadow" result="effect2_dropShadow"/>
<feBlend mode="normal" in="SourceGraphic" in2="effect2_dropShadow" result="shape"/>
</filter>
<linearGradient id="paint0_linear" x1="425.75" y1="157.5" x2="480.5" y2="167.25" gradientUnits="userSpaceOnUse">
<stop stop-color="#DDDDDD"/>
<stop offset="1" stop-color="white" stop-opacity="0"/>
</linearGradient>
</defs>
</svg>
